Patient4_TMGait_0pt4_03_right_04_EMG.mot
version=1
nRows=40
nColumns=33
inDegrees=no
endheader
time	1LAddLong	2LGlutMax	3LGlutMed	4LIliopsoas	5LSemiMemb	6LBicFemLong	7LRecFem	8LVastMed	9LVastLat	10LGasMed	11LTibAnt	12lTibPost	13LPeroneusLong	14LSol	15LExtDigLong	16LFlexDigLong	17RAddLong	18RGlutMax	19RGlutMed	20RIliopsoas	21RSemiMemb	22RBicFemLong	23RRecFem	24RVastMed	25RVastLat	26RGasMed	27RTibAnt	28RTibPost	29RPeroneusLong	30RSol	31RExtDigLong	32RFlexDigLong
4.17	-0.005493	0.046234	-0.22201	-0.000763	0.10117	-0.007477	0.010223	0.005493	-0.046692	-0.020294	0.18249	0.02243	-0.014343	-0.003052	0.001068	-0.004883	-0.005188	-0.17853	-0.31235	-0.020447	0.088959	-0.067444	0.12207	0.006714	0.018463	-0.002441	-0.66193	-0.010529	-0.10941	-0.15457	-0.003662	-0.13489
4.171	0.000763	0.014648	-0.24262	0.001678	0.053406	-0.014801	0.048218	0.007782	0.093689	-0.017548	0.0737	0.018158	-0.036011	-0.020752	0.24643	0.005798	0.019073	-0.10712	-0.4776	-0.014648	0.10086	-0.061646	0.0737	-0.031128	0.030518	0.00351	-0.63141	-0.003357	-0.02655	-0.095367	-0.000153	-0.085144
4.172	0.006714	0.042267	-0.15091	0	-0.01236	-0.056	0.085907	0.012817	0.1651	-0.024109	-0.072784	0.027466	0.019073	-0.031586	0.012054	-0.008545	0.1059	-0.077667	-0.32425	-0.048828	0.09491	-0.06424	0.041046	-0.010681	0.025787	0.00061	-0.21881	-0.010223	-0.028992	-0.01236	-0.000916	-0.052338
4.173	0.000305	0.10178	0.065155	0.007324	-0.010681	-0.099335	0.040741	0.02243	0.20996	-0.008392	-0.24612	0.023499	0.059662	-0.049896	-0.074921	0.003662	0.13992	-0.045776	-0.3801	0.004883	0.085602	-0.070496	0.068665	-0.03067	0.013275	0.00061	-0.16373	-0.003815	0.022583	0.015259	-0.002136	-0.037079
4.174	0.009155	0.12009	0.097809	0.01358	-0.007324	-0.085754	-0.014191	0.014496	0.32867	-0.009308	-0.092316	0.028229	0.010071	-0.032196	-0.27084	-0.008087	0.19165	-0.092316	-0.61935	0.015564	0.085449	-0.061188	0.08194	-0.081177	0.010986	0.001984	-0.30975	-0.012054	0.1268	0.13306	-0.002289	-0.022736
4.175	0.014343	0.075378	0.026703	0.004578	-0.014954	-0.046387	-0.012207	0.023041	0.34027	-0.00824	-0.019226	0.0177	0.001373	-0.021515	-0.2681	-0.016327	0.1535	-0.090179	-0.74097	0.038147	0.067291	-0.061493	0.10346	-0.047302	0.010071	-0.003662	-0.72678	-0.00824	0.19882	0.27374	0.000153	-0.007324
4.176	0.020447	0.086212	-0.081024	0.01236	0.056	-0.013885	0.011292	0.002289	0.021362	-0.010681	0.023956	0.016022	0.000763	-0.032806	-0.2832	-0.006409	0.092621	-0.093842	-0.45319	0.016937	0.059509	-0.073242	0.17654	-0.050964	0.00351	-0.007172	-0.7457	-0.00885	0.11917	0.34485	-0.002594	0.005188
4.177	0.021515	0.080566	-0.10086	0.021515	0.057526	-0.019836	0.072479	-0.00885	-0.36652	-0.014343	0.07782	0.015869	-0.030518	-0.042114	-0.083313	-0.005951	0.029297	-0.079041	0.25665	-0.021362	0.047913	-0.059052	0.10696	-0.03418	0.013123	-0.006561	-0.64484	-0.005646	0.048065	0.29144	-0.001526	-0.002899
4.178	0.00824	0.080566	-0.058441	0.009155	0.028992	0.038605	0.043182	-0.022583	-0.32272	-0.050812	0.068512	0.012207	-0.062256	-0.015564	0.021667	0.000916	-0.024261	-0.10559	0.64499	0.028992	0.054474	-0.066071	0.15823	-0.058136	0.000153	-0.006104	-0.1474	-0.012207	-0.02182	0.14755	-0.002899	-0.001068
4.179	0.005646	0.045166	0.034332	0.014648	0.000916	0.066681	0.072632	-0.017853	-0.24597	-0.04425	0.058594	0.014648	-0.095062	-0.051117	0.074005	-0.005188	-0.07782	-0.16739	-0.065613	0.044098	0.059967	-0.03418	0.10498	-0.050964	0.012817	-0.004578	0.29739	-0.001678	-0.041199	0.058289	-0.002289	0.004425
4.18	-0.006409	0.074158	0.048981	0.017548	-0.013428	0.041199	0.050354	-0.014801	-0.15656	-0.016022	0.016327	0.010834	-0.04837	-0.044861	0.18585	0.007477	-0.074615	-0.15854	-0.11368	0.012665	0.06424	-0.013733	0.063324	-0.046692	0.015411	-0.007324	0.71304	-0.007935	-0.056915	0.060577	-0.002136	0.003662
4.181	0.002747	0.073242	-0.021057	-0.010986	-0.001831	-0.019684	0.007782	-0.016327	-0.096283	0.009308	-0.050049	0.015259	-0.029449	-0.040588	0.12528	0.001221	-0.05661	-0.087585	0.1239	-0.010681	0.051422	-0.012054	0.028839	-0.044098	0.0177	-0.008545	0.74143	0.000153	-0.1181	0.056305	0.000763	-0.027771
4.182	-0.001068	0.073395	-0.032654	-0.001831	0.00824	0.003357	0.031891	0	-0.048065	0.024109	-0.029602	0.017548	-0.06958	-0.048218	0.025177	0.005798	-0.03891	-0.10574	-0.17212	-0.009308	0.050354	-0.015106	0.07309	-0.019226	0.025177	-0.00412	0.21637	-0.001984	-0.07309	0.024567	-0.001068	-0.057678
4.183	-0.006409	0.14343	0.003052	-0.007172	0.036469	0.008392	-0.018158	0.018463	-0.011139	0.012054	-0.1033	0.018005	-0.034485	-0.02121	0.000458	0.053864	-0.03891	-0.112	-0.3389	-0.067902	0.056763	0.002136	0.051422	-0.032501	0.016174	0.002136	-0.48614	-0.002289	0.078125	-0.013885	-0.001984	-0.077362
4.184	-0.005188	0.10071	0.033112	0.003204	0.035248	0.020905	-0.015869	0.014191	0.087433	0.033264	-0.14435	0.016022	-0.03067	-0.012207	0.22705	0.12192	-0.039215	-0.10529	-0.17929	-0.081024	0.05188	0.005646	0.038605	0.008392	0.027466	0.000763	-0.78613	-0.002136	0.069733	0.036926	0.000153	-0.072937
4.185	-0.003357	0.079803	0.054169	0.008545	0.033722	0.015411	0.002747	0.007935	0.21729	0.052185	-0.070801	0.015411	-0.079803	0.004883	0.28046	-0.55847	-0.039673	-0.11749	-0.17578	-0.010834	0.06897	0.01709	0.033722	0.023041	0.022736	0.00824	-0.56534	-0.000458	0.1207	0.092621	-0.006714	-0.066833
4.186	-0.008545	0.092773	0.04425	0.011597	0.026245	-0.005035	0.023956	0.007477	0.1532	0.031128	-0.010529	0.015717	-0.081635	0.002289	-0.007477	0.10162	-0.03067	-0.11627	-0.30853	0.03952	0.050812	0.003357	0.036621	0.002289	0.019989	0.005188	-0.10056	-0.001831	0.12528	0.10651	0.000916	-0.066528
4.187	0.004272	0.11368	0.063629	0.017242	0.016327	-0.024261	0.011597	-0.000153	0.21469	0.017548	0.049286	0.02182	-0.090637	0.023499	0.093536	0.094604	-0.011292	-0.073242	-0.45929	0.10315	0.04303	-0.015717	0.021667	0.008087	0.038757	0.005188	0.059967	0	0.10666	0.063477	-0.002136	-0.071106
4.188	0.013123	0.10162	0.037689	0.017548	0.010223	-0.022736	0.014038	-0.010681	0.099945	0.010376	0.098419	0.012665	-0.054169	0.028839	-0.3186	0.029602	0.011749	-0.064087	-0.59815	0.1445	0.041809	-0.042114	0.031891	-0.024719	0.019073	0.003662	0.34729	-0.002594	-0.18112	-0.047455	0.00885	-0.071716
4.189	0.016022	0.075836	0.023499	-0.002594	0.003967	-0.02121	0.045013	-0.009155	-0.052795	0.012512	0.002899	0.012665	-0.064392	0.045776	-0.13947	0.02594	0.000305	-0.084991	-0.34943	0.076752	0.042572	-0.049438	0.019531	-0.082245	0.00412	0.007324	0.33905	-0.002594	-0.26611	-0.084534	-0.001678	-0.069275
4.19	-0.00885	0.042419	0.000458	0.007477	-0.068207	-0.010681	0.002747	0.005646	-0.1178	0.027161	-0.063477	0.010529	-0.058594	0.042419	0.22766	0.019684	0.010529	-0.035095	-0.28305	-0.012817	0.059967	-0.057526	0.035706	-0.07431	0.02182	0.000763	0.30319	-0.00351	-0.20538	-0.016937	-0.002747	-0.067444
4.191	0.00473	0.029144	-0.037079	0.006561	-0.08728	-0.016174	-0.01709	0.001831	-0.04364	-0.003662	-0.20264	0.007324	-0.075378	0.011444	0.16007	0.010071	0.019836	0.009308	-0.41901	-0.07843	0.057831	-0.05722	0.12146	-0.097046	-0.001373	0	0.45319	-0.002747	-0.14145	0.11047	-0.004883	-0.059509
4.192	-0.000916	0.009155	-0.11932	0.008392	-0.023346	-0.032959	0.035706	0	-0.053406	-0.062561	-0.032196	0.010223	0.002747	0.007782	-0.27039	0.000305	0.03418	-0.011444	-0.040436	-0.18295	0.034485	-0.075531	0.1329	-0.077209	0.02182	0.000153	0.33569	-0.001678	-0.00412	0.12146	-0.00412	-0.050659
4.193	0.00412	-0.045166	-0.06958	0.011597	0.081635	-0.028229	0.017242	-0.003204	-0.11231	-0.097961	-0.11398	0.001526	0.091248	0.076752	-0.12451	-0.016632	0.029602	-0.025177	0.43549	-0.17334	0.019226	-0.089722	0.12634	-0.13138	0.018616	0.000305	0.48813	-0.002594	0.007019	0.057983	-0.002289	-0.042114
4.194	0.000763	-0.15442	-0.060272	0.007172	0.062866	0.013733	0.029755	-0.004425	-0.15762	-0.057373	-0.088959	0.015106	0.050049	0.064697	-0.095825	-0.001526	0.054626	-0.085449	0.30533	-0.005646	0.016937	-0.064087	0.11383	-0.095062	0.009003	0.006104	0.47455	0.009918	-0.04364	-0.015717	-0.000305	-0.032196
4.195	-0.000458	-0.14526	-0.028076	-0.005341	0.010071	-0.003967	0.059814	-0.000305	-0.11261	-0.013733	0.077667	0.00885	-0.001526	0.041656	-0.059204	0.007782	0.054016	-0.058136	0.015564	0.18387	0.015564	-0.065002	0.094757	-0.12253	0.008087	0.007172	-0.43579	-0.002747	-0.17441	-0.003662	-0.001678	-0.021667
4.196	0.003204	-0.16281	-0.02182	-0.008087	0.020752	-0.006256	0.051575	0.005035	-0.064087	-0.006714	0.14862	0.007782	-0.023651	-0.035553	-0.053558	0.001526	0.027924	-0.10956	-0.29465	0.21439	0.007629	-0.032196	0.085297	-0.095367	-0.009155	0.006714	-0.7132	-0.00061	-0.35965	-0.035858	0.007935	-0.012512
4.197	0.005646	-0.14511	-0.046234	0.006409	0.054474	-0.018921	0.017548	0.002441	-0.057983	0.007324	0.18753	0.006866	-0.039063	-0.095062	-0.15595	-0.000458	0.019836	-0.061646	-0.35645	0.078278	0.001526	-0.048828	0.015717	-0.077667	0.013275	0.000153	-0.099182	0	-0.014954	0.003204	-0.001984	-0.011902
4.198	0.005188	-0.15472	-0.12619	0.00412	0.061188	0.006409	0.0354	0.006561	-0.036926	-0.012817	0.097504	0.00412	-0.008392	-0.054321	-0.083923	-0.005188	-0.005646	-0.085907	-0.34302	-0.001068	0.002289	-0.04776	0.002136	-0.060883	0.015564	0.000153	0.45563	-0.001984	0.3801	0.007019	0.005646	-0.002747
4.199	0.003967	-0.11765	-0.010376	0.012207	0.052338	0.007935	0.020294	-0.003662	-0.014496	-0.008545	-0.16541	-0.002136	-0.045166	-0.085449	0.086212	-0.023499	0.005798	-0.088043	-0.26611	-0.033722	0.007477	-0.032196	-0.038147	-0.062714	0.013123	-0.002289	0.49286	-0.002747	0.072479	0.005188	0.003052	-0.004272
4.2	0.000153	-0.098572	0.019073	-0.003815	0.036316	0.009003	0.037079	-0.00351	-0.016327	0.004272	-0.086365	0.007935	-0.12619	-0.02655	0.12177	-0.003357	0.014648	-0.091248	-0.26825	0.020752	0.024567	-0.030518	-0.055389	-0.080109	0.008087	-0.005188	-0.003662	-0.000916	0.023804	-0.022125	0.000763	0.005646
4.201	-0.003357	-0.15549	-0.000916	0.002747	0.003052	0.020447	0.042572	0.005341	-0.026703	-0.02243	-0.11581	0.006409	-0.09079	-0.001831	0.17319	-0.006104	0.004425	-0.13489	-0.36453	0.064697	0.017853	-0.039978	-0.057831	-0.09613	0.003204	-0.000458	-0.19287	-0.001373	0.38971	-0.064392	0.009003	0.00473
4.202	0.001526	-0.10529	-0.05249	0.019226	-0.026703	0.012207	0.062866	0.003204	-0.017548	-0.06073	-0.17929	0.00351	0.068512	-0.02533	-0.055542	-0.000458	0.007935	-0.15564	-0.42999	0.070801	-0.050964	-0.031433	-0.053558	-0.090179	0.009155	-0.000763	-0.24643	0.002289	0.31586	-0.054016	-0.001831	0.00351
4.203	0.006256	-0.053406	-0.042572	0.027618	-0.010834	-0.018463	0.048828	0.006714	-0.00412	-0.11765	-0.12466	0.005035	0.050964	-0.014191	0.27618	0.004578	0.017853	-0.14603	-0.27832	0.06012	-0.099945	-0.029602	-0.025787	-0.058441	0.012665	0.003357	-0.22964	0.000916	0.064392	-0.073547	0.001984	0.011139
4.204	0.006714	-0.052795	0.057678	-0.008392	0.052948	-0.035095	0.044556	0.010223	0.00824	-0.1944	-0.033112	-0.001373	-0.08667	0.029144	-0.19501	-0.009613	0.010071	-0.14771	-0.14847	0.020294	-0.11643	-0.015411	-0.020447	-0.07782	0.019226	0.011444	0.044861	0.001373	-0.009918	-0.11826	-0.001068	0.01236
4.205	0.006409	-0.041809	0.15747	0.008087	0.033569	-0.022278	0.047913	0.004425	0.016022	-0.19119	0.17395	0.006409	-0.22263	0.009918	-0.021973	-0.00824	0.020599	-0.12344	-0.075684	-0.007019	0.11047	-0.022583	-0.019226	-0.089722	0.023499	0.001984	0.14313	0.000305	-0.32333	-0.054169	0	0.018158
4.206	-0.00412	-0.059357	0.13748	0.010986	-0.00946	-0.02243	0.026398	0.002747	0.005646	-0.11566	0.16098	0.01358	-0.24231	-0.062256	-0.002136	0.000916	0.032501	-0.12619	-0.11093	-0.024414	0.24368	-0.056	-0.007629	-0.074615	-0.003815	-0.010223	0.11993	-0.00351	-0.36911	0.038147	-0.001984	0.020752
4.207	0.005798	-0.08316	0.15533	-0.007477	0.015411	-0.023804	0.050354	-0.006714	-0.016327	-0.103	-0.043945	0.005188	-0.10544	-0.092773	-0.036926	-0.003052	0.018158	-0.14374	-0.3598	-0.019989	0.075836	-0.02655	-0.011292	-0.080261	0.011139	-0.011749	-0.01709	-0.003967	-0.11887	0.13901	-0.000458	0.024109
4.208	0.006409	-0.035095	0.076752	0.010834	0.042877	-0.028229	0.070648	0.005646	-0.08194	-0.058289	-0.16632	0.009918	0.017242	-0.031128	0.30319	-0.004425	0.021973	-0.13397	-0.23804	-0.06958	-0.051575	-0.006714	0.019379	-0.095062	0.006866	0.001526	-0.16113	0.000153	0.070801	0.070038	-0.002441	0.016937
4.209	0	-0.04715	0.00061	0.026855	0.04715	-0.013885	0.065002	0.00351	-0.065918	0.066376	-0.085907	0.007019	0.053558	-0.016937	0.054321	0.003357	0.031128	-0.17273	-0.058594	-0.028534	-0.046997	-0.024567	0.025635	-0.11917	0.000916	0.000458	-0.080719	-0.001373	-0.079803	-0.040894	-0.001831	0.032959
